<?xml version="1.0" standalone="no"?>
<!DOCTYPE svg PUBLIC "-//W3C//DTD SVG 20010904//EN"
 "http://www.w3.org/TR/2001/REC-SVG-20010904/DTD/svg10.dtd">
<svg version="1.0" xmlns="http://www.w3.org/2000/svg"
 width="1080.000000pt" height="1080.000000pt" viewBox="0 0 1080.000000 1080.000000"
 preserveAspectRatio="xMidYMid meet">
<metadata>
Created by potrace 1.14, written by Peter Selinger 2001-2017
</metadata>
<g transform="translate(0.000000,1080.000000) scale(0.100000,-0.100000)"
fill="#000000" stroke="none">
<path d="M0 5400 l0 -5400 5400 0 5400 0 0 5400 0 5400 -5400 0 -5400 0 0
-5400z m8026 3400 c27 -13 72 -48 101 -76 69 -71 96 -141 96 -249 -1 -238
-193 -593 -1518 -2805 -614 -1024 -1014 -1699 -1050 -1770 -17 -35 -17 -35 3
-15 10 11 149 171 307 355 1359 1579 1836 2044 2176 2125 157 37 296 -1 405
-109 161 -161 186 -418 83 -831 -82 -328 -310 -918 -558 -1450 l-50 -105 -93
44 c-129 61 -492 237 -496 241 -2 2 32 81 76 177 161 350 319 739 402 991 18
54 30 100 28 103 -7 6 -354 -349 -536 -550 -208 -228 -554 -623 -997 -1136
-732 -849 -981 -1126 -1251 -1390 -185 -181 -246 -233 -349 -295 -182 -109
-386 -97 -503 29 -119 129 -136 286 -58 520 124 372 528 1116 1403 2586 130
217 238 400 240 405 6 15 -24 -23 -411 -514 -1152 -1463 -1784 -2232 -2173
-2642 -294 -312 -434 -413 -592 -426 -226 -19 -391 142 -391 383 0 288 292
891 1355 2794 303 543 312 560 298 545 -5 -5 -124 -158 -263 -340 -747 -972
-966 -1230 -1105 -1300 -55 -27 -69 -30 -160 -30 -89 0 -106 3 -150 27 -161
85 -223 256 -161 441 52 155 200 430 739 1371 198 345 361 636 364 645 3 11
-48 61 -171 166 -97 83 -176 152 -176 155 0 8 177 208 380 430 219 239 462
480 574 569 157 124 292 169 416 137 118 -30 189 -89 239 -196 34 -73 35 -195
4 -285 -12 -33 -20 -61 -19 -63 2 -1 41 44 87 100 154 189 355 412 471 523
164 157 269 214 394 215 195 1 342 -136 361 -335 22 -237 -202 -695 -1325
-2701 -237 -425 -477 -854 -533 -955 -55 -101 -114 -208 -131 -236 -16 -29
-27 -53 -25 -53 11 0 620 764 1537 1930 1048 1331 1323 1676 1680 2105 456
547 618 707 769 757 78 25 190 20 257 -12z"/>
</g>
</svg>
