<?xml version="1.0" standalone="no"?>
<!DOCTYPE svg PUBLIC "-//W3C//DTD SVG 20010904//EN"
 "http://www.w3.org/TR/2001/REC-SVG-20010904/DTD/svg10.dtd">
<svg version="1.0" xmlns="http://www.w3.org/2000/svg"
 width="854.000000pt" height="854.000000pt" viewBox="0 0 854.000000 854.000000"
 preserveAspectRatio="xMidYMid meet">
<metadata>
Created by potrace 1.14, written by Peter Selinger 2001-2017
</metadata>
<g transform="translate(0.000000,854.000000) scale(0.100000,-0.100000)"
fill="#000000" stroke="none">
<path d="M0 4270 l0 -4270 4270 0 4270 0 0 4270 0 4270 -4270 0 -4270 0 0
-4270z m6840 3488 c132 -61 210 -199 197 -347 -9 -105 -50 -216 -167 -449
-187 -374 -407 -753 -1275 -2202 -840 -1403 -1139 -1909 -1132 -1916 2 -2 182
203 401 456 705 816 1027 1171 1357 1495 281 276 429 394 596 479 212 106 409
82 551 -68 99 -104 132 -205 132 -402 0 -249 -74 -544 -255 -1018 -118 -310
-380 -914 -409 -942 -8 -9 -86 25 -303 131 l-292 143 50 108 c87 185 219 492
295 686 90 227 176 478 165 478 -13 0 -336 -334 -543 -561 -233 -256 -470
-527 -947 -1079 -731 -848 -1007 -1156 -1256 -1405 -303 -303 -462 -405 -636
-405 -208 0 -359 162 -359 385 0 143 60 315 234 670 223 456 550 1035 1204
2135 274 461 244 410 238 410 -2 0 -120 -147 -262 -327 -1402 -1781 -2014
-2522 -2414 -2924 -150 -150 -262 -239 -360 -284 -58 -26 -76 -30 -160 -29
-123 0 -178 23 -254 105 -61 65 -93 137 -102 228 -31 288 259 889 1473 3056
161 287 182 327 161 305 -8 -8 -154 -195 -323 -415 -699 -907 -894 -1134
-1032 -1202 -78 -37 -195 -44 -273 -14 -165 62 -253 240 -206 416 41 153 198
447 853 1588 151 263 273 480 271 481 -1 1 -83 71 -181 155 l-179 153 24 27
c14 14 96 107 184 206 341 384 618 664 773 781 181 136 321 164 467 95 69 -33
136 -101 167 -169 30 -68 33 -179 8 -267 -11 -38 -18 -71 -17 -73 2 -1 30 30
62 70 110 136 318 373 423 481 122 125 221 204 306 244 53 25 71 28 160 28 91
0 105 -3 158 -29 70 -36 130 -99 165 -174 24 -51 27 -68 26 -167 0 -98 -4
-121 -33 -205 -114 -328 -377 -831 -1269 -2425 -618 -1105 -706 -1265 -698
-1265 10 0 609 752 1557 1957 1861 2364 2185 2743 2419 2826 68 25 190 18 260
-15z"/>
</g>
</svg>
